<svg width="12" height="11" viewBox="0 0 12 11" fill="none" xmlns="http://www.w3.org/2000/svg">
<path d="M4.04293 3.85733L4.35029 3.81471L4.49316 3.53926L5.77803 1.06195C5.77805 1.06191 5.77807 1.06187 5.77809 1.06183C5.77964 1.05886 5.7804 1.0583 5.78 1.05872C5.77973 1.05899 5.77993 1.05866 5.78133 1.05787C5.78484 1.0559 5.79447 1.0521 5.80915 1.05215C5.82389 1.05219 5.83441 1.0561 5.83909 1.05874L5.84106 1.06001L5.84149 1.06037L5.84153 1.06042L5.8417 1.06064L5.843 1.06282L5.84302 1.06284L7.12742 3.53926L7.27028 3.81471L7.57765 3.85733L10.4526 4.2559L10.453 4.25596C10.4558 4.25634 10.4583 4.25678 10.4604 4.25724L8.39553 6.17058L8.15447 6.39396L8.2129 6.71737L8.70215 9.42506C8.6948 9.42955 8.68595 9.43251 8.67764 9.43324C8.67049 9.43387 8.66225 9.43316 8.65058 9.42733L8.65049 9.42728L6.07855 8.14173L5.81029 8.00764L5.54203 8.14173L2.97009 9.42728L2.96824 9.42821C2.95679 9.43398 2.94903 9.43456 2.94248 9.43399C2.93447 9.43329 2.92567 9.43035 2.9183 9.42572L3.40767 6.71737L3.46611 6.39396L3.22504 6.17058L1.16022 4.25724C1.16232 4.25678 1.16475 4.25634 1.16752 4.25596L1.16794 4.2559L4.04293 3.85733ZM8.70488 9.44004L9.2953 9.33336C9.38385 9.8255 8.83877 10.1923 8.38223 9.96397L8.70488 9.44004Z" fill="white" stroke="#7AC751" stroke-width="1.2"/>
</svg>
